# xmcd
#
# Track frame offsets: 
#        150
#        14481
#        37951
#        65208
#        85700
#        102048
#        131906
#
# Disc length: 2000 seconds
#
# Revision: 0
# Processed by: cddbd v1.5PL3 Copyright (c) Steve Scherf et al.
# Submitted via: ExactAudioCopy v0.90b4
#
DISCID=5807ce07
DTITLE=Magnolia - Shimmer - Ltd Edition
DYEAR=2004
DGENRE=Downbeat
TTITLE0=Feeder
TTITLE1=Avocado Girl
TTITLE2=Sleep to Dream
TTITLE3=Speed
TTITLE4=Submarine
TTITLE5=XL
TTITLE6=Scatter the Stars
EXTD=
EXTT0=
EXTT1=
EXTT2=
EXTT3=
EXTT4=
EXTT5=
EXTT6=
PLAYORDER=
